<?xml version="1.0" encoding="UTF-8"?>
<svg id="Calque_2" data-name="Calque 2" xmlns="http://www.w3.org/2000/svg" viewBox="0 0 430.36 430.36">
  <defs>
    <style>
      .cls-1 {
        fill: #fff;
      }

      .cls-2 {
        fill: #de313a;
      }
    </style>
  </defs>
  <g id="Calque_1-2" data-name="Calque 1">
    <g>
      <rect class="cls-2" width="430.36" height="430.36" rx="47.08" ry="47.08"/>
      <g>
        <g>
          <g>
            <circle class="cls-1" cx="256.98" cy="247.96" r="34.52"/>
            <path class="cls-2" d="m279.76,250.14c0,12.58-10.2,22.78-22.78,22.78s-22.78-10.2-22.78-22.78h45.55Z"/>
          </g>
          <g>
            <path class="cls-1" d="m137.21,210.15v57.92c0,2.9-.01,5.75-.01,8.51-2.1.67-3.61,1.24-5.91,1.73-10.66,2.27-23.74,1.82-39.23-1.34-10.66-2.19-21.05-5.53-31.17-10-10.13-4.46-18.7-9.61-25.71-15.44l21.62-25.32c5.41,4.83,11.67,8.98,18.8,12.44,7.13,3.45,14.28,5.91,21.43,7.38,7.45,1.53,13.61,1.53,18.49,0,4.89-1.52,7.79-4.53,8.71-9,.81-3.95-.37-7.5-3.54-10.61-3.18-3.12-8.91-5.52-17.25-7.23l-18.18-3.72,4.9-23.96,32.7-20.25-60.49-12.39,5.99-29.21.02-.1,31.55,6.47,37.22,7.63v55.46l-.49.3c.16.06.32.13.49.2v9.53c0,.34.01.68.03,1.02Z"/>
            <path class="cls-1" d="m205.59,96.89v51.3l-39.71-7.73v-41.54c0-8.2-6.65-14.85-14.85-14.85-4.1,0-7.82,1.66-10.5,4.35-2.69,2.68-4.35,6.4-4.35,10.5v35.75l-40.02-7.78v-30c0-15.11,6.13-28.79,16.02-38.69,9.9-9.9,23.58-16.02,38.69-16.02,30.22,0,54.71,24.5,54.71,54.71Z"/>
            <path class="cls-1" d="m205.59,157.31v66.17c-1.68,26.38-16.02,38.46-28.57,46.43-12.55,7.97-31.66,6.76-31.66,6.76,0,0-.12-39,0-52.25,13.95,4.81,19.58-5.98,20.52-10.9s0-22.04,0-22.04l-20.52-3.75v-42.55l60.22,12.14Z"/>
          </g>
          <g>
            <rect class="cls-1" x="317.59" y="203.59" width="38.14" height="76.4"/>
            <path class="cls-1" d="m367.03,187.57c-6.51,7.99-16.44,13.1-27.53,13.1-16.12,0-29.76-10.78-34.09-25.51l-28.15-5.67c1.71,24.81,17.99,45.67,40.32,54.06.81.31,1.62.59,2.44.87,6.13,2.02,12.67,3.11,19.47,3.11,5.61,0,11.05-.75,16.23-2.15.98-.26,1.95-.55,2.9-.85,15.94-5.14,29.1-16.54,36.55-31.28l-28.15-5.67Z"/>
          </g>
          <line class="cls-1" x1="395.18" y1="193.24" x2="367.03" y2="187.57"/>
          <line class="cls-1" x1="205.59" y1="157.31" x2="145.37" y2="145.17"/>
        </g>
        <g>
          <path class="cls-1" d="m89.62,369.86c-4.73,0-9.12-.66-13.17-1.98-4.05-1.32-7.54-3.2-10.48-5.65-2.94-2.44-5.23-5.32-6.88-8.64-1.65-3.31-2.48-6.97-2.48-10.96s.83-7.64,2.48-10.96c1.65-3.31,3.96-6.19,6.93-8.64,2.96-2.44,6.48-4.32,10.56-5.65,4.08-1.32,8.54-1.98,13.38-1.98,5.64,0,10.69.82,15.14,2.47,4.45,1.65,8.12,4.01,11.03,7.1l-10.78,8.52c-2.05-1.94-4.26-3.4-6.63-4.37-2.37-.97-5-1.46-7.91-1.46-2.57,0-4.9.35-7.01,1.05-2.11.7-3.91,1.71-5.39,3.03-1.48,1.32-2.64,2.89-3.46,4.71-.83,1.82-1.24,3.88-1.24,6.17s.41,4.21,1.24,6.06c.83,1.85,1.98,3.43,3.46,4.75,1.48,1.32,3.26,2.34,5.34,3.07,2.08.72,4.38,1.08,6.88,1.08s4.96-.36,7.35-1.08c2.39-.72,4.82-1.96,7.27-3.7l9.49,10.39c-3.42,2.14-7.38,3.79-11.89,4.94-4.5,1.15-8.92,1.72-13.25,1.72Zm10.18-8.6v-19.74h14.96v21.68l-14.96-1.94Z"/>
          <path class="cls-1" d="m118.35,368.81l26.42-52.34h16.68l26.51,52.34h-17.62l-20.69-45.09h6.67l-20.69,45.09h-17.27Zm14.45-10.17l4.36-10.92h29.25l4.36,10.92h-37.97Z"/>
          <path class="cls-1" d="m192.75,368.81v-52.34h13.94l24.8,35.59h-7.35l24.12-35.59h13.94l.17,52.34h-15.56l-.17-31.63h2.65l-18.04,26.47h-7.53l-18.56-26.47h3.25v31.63h-15.65Z"/>
          <path class="cls-1" d="m291.09,357.37h31.3v11.44h-48.06v-52.34h46.95v11.44h-30.19v29.46Zm-1.2-20.64h27.79v11.07h-27.79v-11.07Z"/>
          <path class="cls-1" d="m352.83,369.86c-4.9,0-9.62-.54-14.15-1.61s-8.22-2.46-11.07-4.15l5.56-10.92c2.68,1.5,5.77,2.73,9.28,3.7,3.51.97,7,1.46,10.48,1.46,2.34,0,4.22-.19,5.64-.56,1.42-.37,2.46-.87,3.12-1.5.66-.62.98-1.36.98-2.21,0-1.2-.63-2.14-1.88-2.84-1.25-.7-2.88-1.27-4.88-1.72-2-.45-4.21-.9-6.63-1.35-2.42-.45-4.85-1.02-7.27-1.72-2.42-.7-4.63-1.61-6.63-2.73-2-1.12-3.62-2.59-4.87-4.41-1.25-1.82-1.88-4.12-1.88-6.92,0-3.14.98-5.98,2.95-8.52,1.97-2.54,4.92-4.59,8.85-6.13,3.93-1.54,8.84-2.32,14.71-2.32,3.93,0,7.8.39,11.59,1.16,3.79.77,7.17,1.91,10.13,3.4l-5.22,10.99c-2.85-1.35-5.67-2.36-8.47-3.03-2.79-.67-5.5-1.01-8.12-1.01-2.34,0-4.22.21-5.64.64-1.43.42-2.45.99-3.08,1.68-.63.7-.94,1.5-.94,2.39,0,1.15.61,2.06,1.84,2.73,1.23.67,2.85,1.22,4.87,1.65s4.25.86,6.67,1.31c2.42.45,4.84,1.01,7.27,1.68,2.42.67,4.63,1.57,6.63,2.69,1.99,1.12,3.6,2.59,4.83,4.41,1.23,1.82,1.84,4.1,1.84,6.84,0,3.04-.98,5.85-2.95,8.41-1.97,2.57-4.9,4.62-8.81,6.17-3.91,1.54-8.82,2.32-14.75,2.32Z"/>
        </g>
      </g>
    </g>
  </g>
</svg>